<?xml version="1.0" encoding="UTF-8"?>
<svg xmlns="http://www.w3.org/2000/svg" width="26" height="28" viewBox="0 0 2095 2095">
<path fill-rule="nonzero" fill="rgb(99.609375%, 99.609375%, 99.609375%)" fill-opacity="1" d="M 1.453125 0 C 1.066406 0 0.699219 0.148438 0.425781 0.429688 C 0.152344 0.699219 0 1.070312 0 1.449219 L 0 2092.835938 C 0 2093.640625 0.652344 2094.289062 1.453125 2094.289062 L 2092.839844 2094.289062 C 2093.21875 2094.289062 2093.589844 2094.136719 2093.871094 2093.863281 C 2094.140625 2093.59375 2094.289062 2093.222656 2094.289062 2092.839844 L 2094.289062 1.449219 C 2094.289062 0.648438 2093.640625 0 2092.839844 0 Z M 1.453125 0 "/>
<path fill-rule="nonzero" fill="rgb(0%, 0%, 0%)" fill-opacity="1" d="M 1526.878906 787.601562 C 1533.488281 804.230469 1540.101562 820.859375 1546.710938 837.480469 L 1546.691406 837.480469 C 1530.339844 849.179688 1514.601562 859.871094 1499.449219 869.589844 C 1490.390625 852.390625 1481.320312 835.191406 1472.261719 817.988281 L 1472.238281 818 C 1489.230469 808.648438 1507.441406 798.519531 1526.859375 787.601562 Z M 1463.648438 822.710938 L 1488.050781 876.789062 L 1488.03125 876.800781 C 1485.558594 878.328125 1483.109375 879.839844 1480.671875 881.308594 C 1467.5 889.011719 1454.359375 896.179688 1441.230469 902.820312 C 1432.328125 884.929688 1423.429688 867.039062 1414.53125 849.140625 L 1414.511719 849.148438 C 1429.488281 841.238281 1445.871094 832.429688 1463.628906 822.710938 Z M 1403.289062 855.039062 L 1422.679688 899.21875 L 1427.28125 909.691406 L 1427.261719 909.691406 C 1408.019531 918.890625 1388.820312 926.949219 1369.660156 933.890625 C 1363.199219 916.441406 1356.75 899 1350.300781 881.550781 L 1350.289062 881.558594 C 1365.058594 874.601562 1382.71875 865.761719 1403.269531 855.039062 Z M 1340.28125 886.328125 L 1353.351562 931.320312 L 1355.480469 938.691406 L 1355.46875 938.691406 C 1335.320312 944.769531 1316.300781 950.550781 1298.378906 956.019531 C 1292.78125 941.441406 1287.171875 926.871094 1281.570312 912.300781 L 1281.550781 912.300781 C 1303.628906 903.078125 1323.191406 894.429688 1340.269531 886.328125 Z M 1271.238281 916.578125 L 1283.269531 953.390625 L 1285.429688 959.980469 L 1285.410156 959.988281 C 1282.011719 961.019531 1278.660156 962.050781 1275.351562 963.070312 L 1229.941406 933.101562 L 1229.929688 933.109375 C 1244.5 927.410156 1258.261719 921.910156 1271.21875 916.578125 Z M 562.859375 334.980469 C 534.371094 355.21875 505.882812 375.460938 477.394531 395.691406 L 477.398438 395.699219 L 470.953125 404.820312 L 470.699219 413.03125 L 447.929688 434.351562 L 467.027344 410.710938 L 467.816406 398.960938 L 468.914062 397.109375 L 468.921875 397.121094 C 453.410156 378.5 437.898438 359.878906 422.382812 341.269531 C 405.855469 353.140625 389.324219 365.019531 372.796875 376.890625 L 412.621094 441.710938 L 412.613281 441.710938 C 384.402344 461.75 356.1875 481.789062 327.972656 501.828125 L 327.625 513.808594 L 327.28125 525.800781 L 422.613281 457.960938 L 469.925781 534.960938 L 469.917969 534.96875 C 422.863281 568.730469 375.808594 602.5 328.757812 636.261719 L 326.585938 673.269531 L 380.40625 634.980469 L 379.621094 615.148438 C 381.503906 610.808594 383.386719 606.480469 385.265625 602.140625 C 385.273438 607.339844 385.277344 612.539062 385.28125 617.738281 C 386.859375 621.210938 388.433594 624.679688 390.011719 628.140625 L 485.453125 560.230469 L 559.894531 681.378906 L 724.910156 949.929688 L 715.824219 952.980469 C 706.625 963.769531 697.429688 974.570312 688.230469 985.359375 L 656.574219 955.78125 L 601.453125 1020.171875 C 607.574219 1018.679688 613.695312 1017.199219 619.816406 1015.710938 C 626.28125 1011.621094 632.746094 1007.519531 639.214844 1003.421875 L 639.222656 1003.429688 C 631.605469 1011.089844 623.984375 1018.761719 616.367188 1026.429688 L 602.769531 1036.710938 L 612.167969 1074.640625 L 612.160156 1074.640625 C 602.503906 1085.96875 592.84375 1097.308594 583.183594 1108.640625 C 571.277344 1097.515625 559.367188 1086.390625 547.457031 1075.261719 L 547.449219 1075.269531 L 545.765625 1076.910156 L 547.5625 1093.851562 L 533.484375 1074.960938 L 521.550781 1075.289062 L 516.160156 1072.648438 L 516.152344 1072.660156 C 501.28125 1090.019531 486.414062 1107.390625 471.542969 1124.757812 L 493.609375 1213.78125 L 493.601562 1213.785156 C 477.445312 1232.738281 461.292969 1251.695312 445.136719 1270.65625 C 429.8125 1317.882812 414.484375 1365.113281 399.15625 1412.34375 L 399.148438 1412.347656 L 264.699219 1553.492188 C 285.234375 1584.582031 307.394531 1611.710938 331.179688 1634.871094 L 354.777344 1605.714844 L 457.523438 1611.28125 L 519.363281 1584.59375 L 480.191406 1641.566406 L 422.960938 1657.6875 L 436.082031 1699.265625 L 432.058594 1705.046875 L 432.066406 1705.050781 C 444.675781 1710.839844 457.617188 1715.828125 470.886719 1720.011719 C 554.644531 1746.207031 645.039062 1759.308594 742.078125 1759.308594 C 763.445312 1759.308594 785.136719 1758.671875 807.148438 1757.402344 C 938.632812 1751.480469 1052.769531 1732.359375 1149.550781 1700.046875 C 1262.480469 1661.3125 1384.820312 1596.980469 1516.558594 1507.046875 L 1597.410156 1271.480469 L 1597.410156 1271.484375 L 1568.238281 1259.824219 L 1526.308594 1300.035156 L 1511.921875 1348.820312 L 1477.789062 1311.4375 L 1382.398438 1348.230469 L 1522.320312 1234.046875 L 1506.53125 1151.496094 L 1588.109375 1138.796875 L 1651.511719 1088.578125 L 1659.320312 1091.121094 L 1659.320312 1091.128906 L 1829.589844 595.03125 L 1829.570312 595.03125 C 1808.609375 615.191406 1788.179688 634.460938 1768.28125 652.859375 C 1765.558594 645.5 1762.828125 638.140625 1760.101562 630.78125 C 1758.25 632.960938 1756.398438 635.128906 1754.550781 637.300781 L 1759.851562 654.058594 L 1761.46875 659.160156 L 1761.441406 659.171875 C 1750.179688 669.53125 1739.089844 679.609375 1728.171875 689.398438 C 1722.160156 678.378906 1716.148438 667.371094 1710.128906 656.351562 L 1710.109375 656.359375 L 1760.621094 617.46875 L 1763.921875 608 L 1785.789062 596.550781 L 1795.25 573.378906 L 1679.730469 647.628906 L 1669.070312 687.941406 L 1700.308594 663.898438 L 1709.53125 686.078125 L 1715.589844 700.640625 L 1715.570312 700.648438 C 1657.46875 752.230469 1604.410156 795.5 1556.390625 830.480469 L 1532.980469 784.171875 L 1532.960938 784.179688 C 1539.128906 780.699219 1545.410156 777.140625 1551.820312 773.519531 L 1572.929688 722.519531 L 1572.910156 722.519531 C 1517.28125 764.191406 1466.789062 796.488281 1421.460938 819.429688 C 1382.371094 840.320312 1310.171875 872.699219 1204.859375 916.550781 L 1076.550781 831.878906 L 884.847656 896.238281 C 830.890625 831.488281 776.933594 766.738281 722.976562 701.988281 L 722.96875 701.988281 L 719.242188 704.671875 L 732.707031 740.140625 L 710.050781 850.75 L 709.65625 739.96875 L 683.128906 698.058594 L 695.324219 668.820312 L 695.332031 668.820312 C 650.359375 614.851562 605.386719 560.871094 560.414062 506.910156 L 560.40625 506.910156 L 724.066406 390.460938 C 714.515625 384.691406 704.960938 378.929688 695.40625 373.160156 C 644 410.050781 592.589844 446.941406 541.183594 483.828125 C 521.960938 460.769531 502.742188 437.699219 483.523438 414.640625 L 483.515625 414.640625 L 580.285156 345.78125 C 574.476562 342.179688 568.667969 338.578125 562.859375 334.980469 Z M 562.859375 334.980469 "/>
</svg>
